<svg width="330" height="170" viewBox="0 0 330 170" fill="none" xmlns="http://www.w3.org/2000/svg">
<path d="M192.931 156L139 155V168.939H192.931V156Z" fill="#DAC6AD"/>
<path d="M258.074 120.5C250.199 124.521 225.649 118.098 214 117.5L201 120C209 132 220.5 138.437 250.199 138.437C268.443 138.437 288.623 123.83 288.623 123.83C288.623 123.83 294.648 124.189 304 123.83C311.482 123.543 309.953 120.839 309.296 119.522L258.074 120.5Z" fill="#DAC6AD"/>
<path d="M69.2067 113.5C77.2067 119.1 102.873 118.833 114.707 118L128.707 128.5C109.707 139 95.7065 135.5 77.2065 134C58.7065 132.5 41.7065 119.5 40.2065 119.5C38.7065 119.5 36.2067 120 26.7067 119.5C19.1067 119.1 18.54 115.333 19.2067 113.5H69.2067Z" fill="#DAC6AD"/>
<path d="M114.5 69C112.9 73.8 140.5 77.3333 154.5 78.5H176.5C215 76 207 70.5 207 69C207 67.5 201 56 197 34.5C193 13 183.5 0 161.5 0C139.5 0 132 17 131.5 17.5C131 18 116.5 63 114.5 69Z" fill="#77CB5A"/>
<path d="M133.19 64C128.79 56.4 132.024 47.8333 134.19 44.5C134.59 49.7 136.024 52.3333 136.69 53C136.69 63.8 134.357 64.8333 133.19 64Z" fill="url(#paint0_linear_473_272)"/>
<path d="M189.806 62.8178C193.5 55.5 193.5 52.5 192 47.5C191.508 51.7181 186.82 55.9592 186 56.5C186 65.2607 188.37 63.4938 189.806 62.8178Z" fill="url(#paint1_linear_473_272)"/>
<path d="M137 84C137.8 83.6 149 82.5 154.5 82H175C177.5 82 186 84 195 85C204 86 215.5 108.5 219 115C222.231 121 203 127.65 201.5 126C196.5 120.5 195.5 110 195 113C194.6 115.4 196.833 144.333 198 158.5C184 168.5 137 161.5 134.5 161C132 160.5 138 115 136 116C134 117 129 131.5 127.5 131.5C126 131.5 110 120.5 109.5 118.5C109 116.5 120.5 101.5 125 95.5C129.5 89.5 136 84.5 137 84Z" fill="#8549D2"/>
<path d="M138.898 28.767C143.707 26.278 152.846 25.9461 158.137 26.278C162.466 26.2773 167.276 14.3303 167.276 18.3128C167.276 22.2953 166.794 27.2735 172.085 27.2735C176.317 27.2735 183.375 26.4601 186.033 28.767C200.943 41.71 188.437 58.1379 180.742 62.1203C178.183 63.4451 175.584 64.3795 173.047 65.0259V79.0459C173.047 87.0109 171.123 89.5 161.984 89.5C154.673 89.5 153.487 81.8669 153.808 78.0503V65.7328C153.445 65.6846 153.124 65.6408 152.846 65.605C148.999 65.1071 139.502 62.0162 134.569 51.1684C130.722 42.7056 134.64 30.9711 138.898 28.767Z" fill="#DAC6AD"/>
<path d="M0 169H330" stroke="#F0F2FF"/>
<defs>
<linearGradient id="paint0_linear_473_272" x1="133.845" y1="44.5" x2="133.845" y2="64.2246" gradientUnits="userSpaceOnUse">
<stop stop-color="#D9D9D9"/>
<stop offset="1" stop-color="white"/>
</linearGradient>
<linearGradient id="paint1_linear_473_272" x1="189.47" y1="47.5" x2="189.47" y2="63.4304" gradientUnits="userSpaceOnUse">
<stop stop-color="#D9D9D9"/>
<stop offset="1" stop-color="white"/>
</linearGradient>
</defs>
</svg>
