<svg width="46" height="40" viewBox="0 0 46 40" fill="none" xmlns="http://www.w3.org/2000/svg">
<path d="M17.1752 0.31684C16.9748 0.163976 16.732 0.0616182 16.472 0.0204082C16.212 -0.0208018 15.9444 0.000639843 15.6969 0.0825055C12.0433 1.27162 8.7857 3.25971 6.2247 5.86326C3.66369 8.4668 1.88188 11.6019 1.04374 14.9791C0.205608 18.3563 0.338168 21.8667 1.42919 25.1863C2.52021 28.506 4.53452 31.5278 7.28617 33.9728C10.0378 36.4179 13.4381 38.2073 17.1731 39.176C20.9082 40.1447 24.8576 40.2613 28.6567 39.5152C32.4559 38.7691 35.9823 37.1843 38.9105 34.907C41.8387 32.6298 44.0743 29.7335 45.4109 26.4856C45.5004 26.2669 45.523 26.031 45.4763 25.802C45.4296 25.573 45.3154 25.3591 45.1452 25.1822C44.975 25.0054 44.7551 24.8718 44.5078 24.7953C44.2606 24.7188 43.9949 24.702 43.7379 24.7467C40.5226 25.3098 37.2069 25.2332 34.0288 24.5225C30.8506 23.8117 27.889 22.4844 25.3563 20.6358C22.8236 18.7872 20.7828 16.4631 19.3802 13.8304C17.9777 11.1977 17.2482 8.32163 17.2442 5.40867C17.2437 4.11992 17.384 2.83418 17.6631 1.56954C17.7139 1.34104 17.6956 1.10462 17.6099 0.884502C17.5241 0.664382 17.3741 0.468471 17.1752 0.31684ZM14.3812 3.46392C14.3188 4.10925 14.2876 4.7575 14.2876 5.40867C14.2954 11.331 16.9457 17.0088 21.657 21.1966C26.3683 25.3843 32.756 27.7401 39.4188 27.747C40.1498 27.747 40.8791 27.7193 41.6067 27.6638C40.1471 30.1733 38.042 32.3413 35.4625 33.9916C32.883 35.6419 29.9018 36.7281 26.7613 37.1617C23.6207 37.5954 20.4094 37.3644 17.3882 36.4874C14.367 35.6105 11.6211 34.1123 9.37378 32.1147C7.12644 30.1171 5.44099 27.6765 4.45439 24.991C3.4678 22.3055 3.20788 19.4511 3.69577 16.6595C4.18366 13.868 5.40559 11.2182 7.26226 8.92531C9.11894 6.63248 11.558 4.76133 14.3812 3.46392Z" fill="black"/>
</svg>
