<svg width="48" height="44" viewBox="0 0 48 44" fill="none" xmlns="http://www.w3.org/2000/svg">
<path d="M44.382 20.3077L46.191 20.3077C46.6708 20.3077 47.1309 20.486 47.4701 20.8034C47.8094 21.1207 48 21.5512 48 22C48 22.4488 47.8094 22.8793 47.4701 23.1966C47.1309 23.514 46.6708 23.6923 46.191 23.6923L44.382 23.6923C43.9022 23.6923 43.4421 23.514 43.1028 23.1966C42.7635 22.8793 42.5729 22.4488 42.5729 22C42.5729 21.5512 42.7635 21.1207 43.1028 20.8034C43.4421 20.486 43.9022 20.3077 44.382 20.3077ZM24.4828 35.5385C21.6204 35.5385 18.8224 34.7444 16.4425 33.2568C14.0625 31.7692 12.2076 29.6548 11.1122 27.1809C10.0169 24.7071 9.73028 21.985 10.2887 19.3588C10.8471 16.7326 12.2254 14.3202 14.2494 12.4269C16.2734 10.5335 18.8521 9.24406 21.6594 8.72168C24.4667 8.19929 27.3766 8.4674 30.021 9.49209C32.6655 10.5168 34.9257 12.252 36.5159 14.4784C38.1061 16.7048 38.9549 19.3223 38.9549 22C38.9507 25.5894 37.4246 29.0307 34.7115 31.5688C31.9983 34.1069 28.3197 35.5345 24.4828 35.5385ZM24.4828 32.1538C26.6295 32.1538 28.728 31.5583 30.513 30.4426C32.2979 29.3269 33.6891 27.7411 34.5106 25.8857C35.3322 24.0303 35.5471 21.9887 35.1283 20.0191C34.7095 18.0494 33.6757 16.2402 32.1578 14.8201C30.6398 13.4001 28.7058 12.433 26.6003 12.0413C24.4948 11.6495 22.3124 11.8505 20.3291 12.6191C18.3457 13.3876 16.6506 14.689 15.4579 16.3588C14.2652 18.0286 13.6287 19.9918 13.6286 22C13.6316 24.6921 14.7762 27.2732 16.811 29.1768C18.8459 31.0804 21.605 32.151 24.4828 32.1538ZM37.675 7.26423C37.3356 7.58178 37.1449 8.01246 37.1449 8.46154C37.1449 8.91062 37.3356 9.3413 37.675 9.65884C38.0145 9.97639 38.4749 10.1548 38.9549 10.1548C39.435 10.1548 39.8953 9.97639 40.2348 9.65885L42.0438 7.96654C42.3833 7.64899 42.574 7.21831 42.574 6.76923C42.574 6.32015 42.3833 5.88947 42.0438 5.57192C41.7044 5.25438 41.244 5.07598 40.7639 5.07598C40.2839 5.07598 39.8235 5.25438 39.484 5.57192L37.675 7.26423ZM11.2905 7.26423L9.48148 5.57192C9.14203 5.25438 8.68164 5.07598 8.2016 5.07598C7.72155 5.07598 7.26116 5.25438 6.92171 5.57192C6.58227 5.88947 6.39157 6.32015 6.39157 6.76923C6.39157 7.21831 6.58227 7.64899 6.92171 7.96654L8.73073 9.65885C8.89881 9.81608 9.09834 9.9408 9.31795 10.0259C9.53755 10.111 9.77292 10.1548 10.0106 10.1548C10.2483 10.1548 10.4837 10.111 10.7033 10.0259C10.9229 9.9408 11.1224 9.81608 11.2905 9.65885C11.4586 9.50161 11.5919 9.31495 11.6829 9.10952C11.7738 8.90408 11.8206 8.6839 11.8206 8.46154C11.8206 8.23918 11.7738 8.01899 11.6829 7.81356C11.5919 7.60812 11.4586 7.42146 11.2905 7.26423ZM37.1459 35.5385C37.1457 35.7608 37.1923 35.9809 37.2831 36.1864C37.3739 36.3918 37.5071 36.5785 37.675 36.7358L39.484 38.4281C39.8235 38.7456 40.2839 38.924 40.7639 38.924C41.244 38.924 41.7044 38.7456 42.0438 38.4281C42.3833 38.1105 42.5739 37.6798 42.5739 37.2308C42.5739 36.7817 42.3833 36.351 42.0438 36.0335L40.2348 34.3412C39.9818 34.1042 39.6593 33.9428 39.3082 33.8774C38.9571 33.812 38.5932 33.8455 38.2624 33.9737C37.9317 34.1019 37.6491 34.319 37.4503 34.5976C37.2516 34.8761 37.1456 35.2036 37.1459 35.5385ZM11.2905 36.7358C11.6299 36.4182 11.8206 35.9875 11.8206 35.5385C11.8206 35.0894 11.6299 34.6587 11.2905 34.3412C10.951 34.0236 10.4907 33.8452 10.0106 33.8452C9.53056 33.8452 9.07018 34.0236 8.73073 34.3412L6.92171 36.0335C6.75364 36.1907 6.62031 36.3774 6.52935 36.5828C6.43839 36.7882 6.39157 37.0084 6.39157 37.2308C6.39157 37.4531 6.43839 37.6733 6.52935 37.8787C6.62031 38.0842 6.75364 38.2708 6.92171 38.4281C7.08979 38.5853 7.28933 38.71 7.50893 38.7951C7.72853 38.8802 7.9639 38.924 8.20159 38.924C8.43929 38.924 8.67466 38.8802 8.89426 38.7951C9.11386 38.71 9.3134 38.5853 9.48148 38.4281L11.2905 36.7358ZM26.2918 3.38461L26.2918 1.69231C26.2918 1.24348 26.1012 0.813034 25.7619 0.495664C25.4227 0.178295 24.9625 -1.007e-06 24.4828 -1.02797e-06C24.003 -1.04894e-06 23.5428 0.178295 23.2036 0.495664C22.8643 0.813034 22.6737 1.24348 22.6737 1.69231L22.6737 3.38461C22.6737 3.83344 22.8643 4.26389 23.2036 4.58126C23.5428 4.89863 24.003 5.07692 24.4828 5.07692C24.9625 5.07692 25.4227 4.89863 25.7619 4.58126C26.1012 4.26389 26.2918 3.83344 26.2918 3.38461ZM6.39258 22C6.39258 21.5512 6.20199 21.1207 5.86273 20.8034C5.52347 20.486 5.06334 20.3077 4.58356 20.3077L2.77454 20.3077C2.29476 20.3077 1.83463 20.486 1.49537 20.8034C1.15611 21.1207 0.965521 21.5512 0.965521 22C0.965521 22.4488 1.15611 22.8793 1.49537 23.1966C1.83463 23.514 2.29476 23.6923 2.77454 23.6923L4.58356 23.6923C5.06334 23.6923 5.52347 23.514 5.86273 23.1966C6.20199 22.8793 6.39258 22.4488 6.39258 22ZM26.2918 42.3077L26.2918 40.6154C26.2918 40.1666 26.1012 39.7361 25.7619 39.4187C25.4227 39.1014 24.9625 38.9231 24.4828 38.9231C24.003 38.9231 23.5428 39.1014 23.2036 39.4187C22.8643 39.7361 22.6737 40.1666 22.6737 40.6154L22.6737 42.3077C22.6737 42.7565 22.8643 43.187 23.2036 43.5043C23.5428 43.8217 24.003 44 24.4828 44C24.9625 44 25.4227 43.8217 25.7619 43.5043C26.1012 43.187 26.2918 42.7565 26.2918 42.3077Z" fill="black"/>
</svg>
